<svg width="116" height="110" viewBox="0 0 116 110" fill="none" xmlns="http://www.w3.org/2000/svg">
<g clip-path="url(#clip0_52_60)">
<path fill-rule="evenodd" clip-rule="evenodd" d="M60.3588 80.8645C66.1671 82.4571 71.0194 84.6819 75.6396 89.7189C76.1693 90.296 77.1199 89.9622 77.0552 89.1815C76.5759 83.4024 73.3603 78.9758 73.3603 78.9758C73.3603 78.9758 77.1537 79.0001 80.0301 80.4426C80.7558 80.8065 81.73 80.2487 81.3868 79.5118C80.3411 77.2665 78.1918 75.5029 76.0555 74.2142L95.9327 65.7928C103.73 62.4892 107.364 53.4689 104.05 45.6454L90.7125 14.1657C87.3979 6.34234 78.3898 2.67807 70.5923 5.98162L14.1185 29.9081C6.32118 33.2116 2.68706 42.232 6.0016 50.0554L19.3387 81.5351C22.6533 89.3586 31.6615 93.0227 39.4588 89.7192L60.3588 80.8645Z" fill="#2EB67D"/>
<path fill-rule="evenodd" clip-rule="evenodd" d="M93.462 59.4108C97.6576 57.5087 99.5875 52.5842 97.7742 48.3042L84.4372 16.8248C82.5957 12.4784 77.5911 10.4425 73.2592 12.2778L16.0009 36.5366C11.669 38.3719 9.65029 43.3834 11.4917 47.7298L24.8287 79.2092C26.6702 83.5556 31.6746 85.5913 36.0065 83.756L93.2648 59.4972C93.3281 59.4704 93.391 59.4428 93.4533 59.4147C92.7943 59.6939 91.9518 60.0509 90.9099 60.4923C90.8511 60.5172 90.7924 60.542 90.7338 60.5665C91.815 60.1085 92.7352 59.7186 93.462 59.4108ZM41.6376 81.3671C63.0771 72.1745 54.8968 50.689 54.8968 50.689L56.4481 50.0317C56.4481 50.0317 65.0168 71.3492 90.7338 60.5665C79.5854 65.2896 51.3217 77.264 41.6376 81.3671ZM41.4951 81.4278C41.5427 81.4076 41.59 81.3875 41.6376 81.3671C37.6841 83.0421 36.8271 83.4053 41.4951 81.4278Z" fill="white"/>
<path d="M79.7532 53.9914L83.6195 52.3534C86.4694 51.146 87.7976 47.8492 86.5861 44.9898L80.922 31.6207C79.7106 28.7613 76.4182 27.4221 73.5684 28.6295L69.7021 30.2675C66.8522 31.4749 65.524 34.7717 66.7355 37.6311L72.3996 51.0002C73.611 53.8596 76.9034 55.1988 79.7532 53.9914Z" fill="#040404"/>
<path d="M37.5634 71.7936L41.4297 70.1555C44.2796 68.9481 45.6078 65.6513 44.3963 62.7919L38.7322 49.4228C37.5207 46.5634 34.2284 45.2242 31.3785 46.4316L27.5122 48.0697C24.6624 49.2771 23.3342 52.5739 24.5456 55.4333L30.2098 68.8024C31.4212 71.6618 34.7136 73.001 37.5634 71.7936Z" fill="#040404"/>
<path d="M78.3153 48.5422C78.5928 49.1973 79.3471 49.5041 80 49.2275C80.653 48.9509 80.9573 48.1956 80.6797 47.5405L79.0045 43.5864C78.7269 42.9313 77.9726 42.6245 77.3197 42.9011C76.6668 43.1778 76.3625 43.9331 76.6401 44.5882L78.3153 48.5422Z" fill="white"/>
<path d="M36.1167 66.348C36.3942 67.0031 37.1485 67.31 37.8014 67.0333C38.4543 66.7567 38.7586 66.0014 38.4811 65.3463L36.8059 61.3923C36.5283 60.7372 35.774 60.4304 35.1211 60.707C34.4682 60.9836 34.1639 61.7389 34.4415 62.394L36.1167 66.348Z" fill="white"/>
<path d="M49.1574 35.8951C50.7455 35.2227 63.9609 40.8021 62.4515 45.0489C60.9421 49.2953 51.3608 54.0038 46.5798 51.8234C41.7994 49.6432 47.5691 36.5672 49.1574 35.8951Z" fill="#E59200"/>
<path d="M50.1474 38.3358C51.3719 37.8212 60.7529 41.4808 60.13 44.7497C59.74 49.8293 52.4917 53.7644 47.9034 49.9644C45.415 47.4928 48.9224 38.8502 50.1474 38.3358Z" fill="white"/>
<path d="M52.2392 43.2064C53.8275 42.5335 64.2678 41.5672 62.6547 45.571C61.0417 49.5747 51.4425 54.2419 46.7834 52.3462C42.1243 50.4504 50.651 43.8788 52.2392 43.2064Z" fill="#FFA200"/>
<path opacity="0.1" d="M51.6478 49.5204C52.3211 49.3045 56.3412 48.4664 55.4158 49.6784C54.491 50.8906 50.3778 52.3743 48.6828 51.8502C46.9883 51.3262 50.9744 49.736 51.6478 49.5204Z" fill="white"/>
<path d="M72.5633 26.556C66.1561 27.9803 61.5441 31.7395 62.2623 34.9523C62.9805 38.1651 68.7569 39.615 75.1642 38.1906C81.5715 36.7663 86.1834 33.0071 85.4652 29.7943C84.747 26.5815 78.9706 25.1317 72.5633 26.556Z" fill="white"/>
<path d="M24.9555 46.7263C30.4359 43.1142 36.3447 42.416 38.1531 45.1669C39.9616 47.9178 36.9849 53.0761 31.5045 56.6882C26.0241 60.3004 20.1154 60.9985 18.3069 58.2476C16.4985 55.4967 19.4751 50.3385 24.9555 46.7263Z" fill="white"/>
<path d="M59.0753 90.6304C58.6094 91.6113 57.1339 91.2509 57.1726 90.1657L57.4742 81.7225C57.4896 81.2913 57.7799 80.9186 58.1942 80.798L62.4973 79.5462C63.3257 79.3052 64.0501 80.156 63.6799 80.9354L59.0753 90.6304Z" fill="#2EB67D"/>
</g>
<defs>
<clipPath id="clip0_52_60">
<rect width="92" height="80" fill="white" transform="translate(115.919 73.6616) rotate(157.039)"/>
</clipPath>
</defs>
</svg>
